<?xml version="1.0" standalone="no"?>
<!DOCTYPE svg PUBLIC "-//W3C//DTD SVG 20010904//EN"
 "http://www.w3.org/TR/2001/REC-SVG-20010904/DTD/svg10.dtd">
<svg version="1.0" xmlns="http://www.w3.org/2000/svg"
 width="1836.000000pt" height="1836.000000pt" viewBox="0 0 1836.000000 1836.000000"
 preserveAspectRatio="xMidYMid meet">

<g transform="translate(0.000000,1836.000000) scale(0.100000,-0.100000)"
fill="#000000" stroke="none">
<path d="M11280 14425 l0 -945 -1200 0 -1200 0 0 -630 0 -630 755 0 755 0 0
-3085 0 -3085 -597 -2 -598 -3 -152 -665 c-83 -366 -154 -677 -157 -692 l-5
-28 1199 0 1200 0 0 -945 0 -945 535 0 535 0 0 945 0 945 525 0 525 0 0 -945
0 -945 535 0 535 0 0 945 0 945 88 0 c228 0 622 39 867 86 765 147 1392 466
1861 945 222 228 363 426 495 694 177 362 249 700 235 1100 -21 608 -190 1037
-551 1401 -195 196 -477 392 -883 614 -73 40 -130 76 -125 80 4 4 55 45 113
91 126 101 339 311 433 429 181 226 295 440 354 668 25 97 28 123 27 277 -1
351 -90 703 -268 1053 -379 745 -1090 1212 -2041 1341 -173 24 -391 41 -517
41 l-88 0 0 945 0 945 -535 0 -535 0 0 -945 0 -945 -525 0 -525 0 0 945 0 945
-535 0 -535 0 0 -945z m2678 -2216 c538 -58 961 -330 1133 -728 70 -164 84
-240 83 -461 0 -178 -3 -204 -26 -292 -120 -443 -475 -746 -1012 -865 l-121
-27 -832 -3 -833 -4 0 1196 0 1195 755 0 c462 0 794 -4 853 -11z m567 -3542
c247 -40 415 -88 582 -167 366 -173 586 -441 675 -820 29 -125 36 -401 14
-540 -87 -552 -485 -919 -1132 -1044 -228 -44 -296 -46 -1331 -46 l-983 0 0
1320 0 1321 1038 -4 c899 -3 1050 -5 1137 -20z"/>
<path d="M387 13463 c-4 -3 -7 -296 -7 -650 l0 -643 3430 0 3430 0 0 650 0
650 -3423 0 c-1883 0 -3427 -3 -3430 -7z"/>
<path d="M437 10013 c-4 -3 -7 -296 -7 -650 l0 -643 3430 0 3430 0 0 650 0
650 -3423 0 c-1883 0 -3427 -3 -3430 -7z"/>
<path d="M487 6143 c-4 -3 -7 -296 -7 -650 l0 -643 3430 0 3430 0 0 650 0 650
-3423 0 c-1883 0 -3427 -3 -3430 -7z"/>
</g>
</svg>
